/* XPM */
static char *_f065192f73e4ed5810ee0c5de60e0fbeQbDuCRrwGbU99sm[] = {
/* columns rows colors chars-per-pixel */
"64 64 6 1 ",
"  c None",
". c black",
"X c #111111",
"o c #2C2C2C",
"O c gray42",
"+ c white",
/* pixels */
"                              ++++                              ",
"                             +ooXX+                             ",
"                            +ooOoX.+                            ",
"                            +oOOOX.+                            ",
"                            +XoOoX.+                            ",
"                            +XXXX..+                            ",
"                             +oX..+                             ",
"                             +Oo..+                             ",
"                             +Oo..+                             ",
"                             +Oo..+                             ",
"                            +Ooo...+                            ",
"                            +Ooo...+                            ",
"                            +Ooo...+                            ",
"                           +Oooo....+                           ",
"                           +Oooo....+                           ",
"                           +Oooo....+                           ",
"                          +Ooooo.....+                          ",
"                          +Ooooo.....+                          ",
"                          +Ooooo.....+                          ",
"                         +Oooooo......+                         ",
"                         +Oooooo......+                         ",
"                         +Oooooo......+                         ",
"  ++++                  +Ooooooo.......+                  ++++  ",
" +ooXX+                 +Ooooooo.......+                 +ooX.+ ",
"+ooOoXX+++++++++++++++++Oooooooo.......X+++++++++++++++++ooOoX.+",
"+oOOOXXoOOOOOOOOOOOOOOOOoooooooo.......XXXXXXXXXXXXXXXXXXoOOOX.+",
"+XoOoX..Xooooooooooooooooooooooo........XXXXXXXXXXXXXXXXXXoOoX.+",
"+.XXX......Xoooooooooooooooooooo........XXXXXXXXXXXXXX....XXX..+",
" +....+.......Xooooooooooooooooo.........XXXXXXXXXX......+....+ ",
"  ++++ +.........Xoooooooooooooo..........XXXXXX........+ ++++  ",
"        +...........XooooooooooX.......................+        ",
"         ++............XooooooX......................++         ",
"           +........................................+           ",
"            ++....................................++            ",
"              +..................................+              ",
"               +................................+               ",
"                ++............................++                ",
"                  +..........................+                  ",
"                   +........................+                   ",
"                   +X.......................+                   ",
"                   +XX......................+                   ",
"                   +XXX.....................+                   ",
"                  +XXXXX.....................+                  ",
"                  +XXXXX.....................+                  ",
"                  +XXXXXX....................+                  ",
"                 +XXXXXXX.....................+                 ",
"                 +XXXXXXX.....................+                 ",
"                 +XXXXXX..........XXXX........+                 ",
"                 +XXXXX........++XXXXXXX......+                 ",
"                +XXXXX........+  +XXXXXXX......+                ",
"                +XXXXX.......+    +XXXXXXX.....+                ",
"                +XXXX......++      ++XXXXXX....+                ",
"               +XXXX......+          +XXXXX.....+               ",
"               +XXX.....++            ++XXXX....+               ",
"               +XXX....+                +XXXX...+               ",
"              +XXX....+                  +XXXX...+              ",
"            ++XXX...++                    ++XXX...++            ",
"           +ooXX...+                        +XXXoo..+           ",
"          +ooOoX..+                          +XooOo..+          ",
"          +oOOOX.+                            +oOOO..+          ",
"          +XoOoX.+                            +.oOo..+          ",
"          +.XXX..+                            +......+          ",
"           +....+                              +....+           ",
"            ++++                                ++++            "
};
