/* XPM */
static char *f7acb79194a540d9a02e0b9cd02f3238HIbZmWDYKOThlUgI[] = {
/* columns rows colors chars-per-pixel */
"64 64 214 2 ",
"   c None",
".  c #04060A",
"X  c #05060A",
"o  c #0A0E14",
"O  c #0D121B",
"+  c #0C1215",
"@  c #10141C",
"#  c #14171B",
"$  c #140F0C",
"%  c #251B18",
"&  c #381F10",
"*  c #3C2516",
"=  c #3A261A",
"-  c #382619",
";  c #2F2217",
":  c #141B24",
">  c #161C28",
",  c #181E29",
"<  c #161C24",
"1  c #0F1523",
"2  c #1C232D",
"3  c #1A2127",
"4  c #1E2631",
"5  c #1F2832",
"6  c #262324",
"7  c #2B2423",
"8  c #2B2C2E",
"9  c #27272A",
"0  c #312B2C",
"q  c #372C25",
"w  c #3D352D",
"e  c #222B35",
"r  c #232D3A",
"t  c #272A32",
"y  c #26323E",
"u  c #2A333D",
"i  c #2A3035",
"p  c #313235",
"a  c #3A393A",
"s  c #442515",
"d  c #4C2B16",
"f  c #4E2D1A",
"g  c #432D19",
"h  c #512C16",
"j  c #532D19",
"k  c #5B361A",
"l  c #5E391D",
"z  c #53301A",
"x  c #482D14",
"c  c #623B1D",
"v  c #422D20",
"b  c #4C3524",
"n  c #4A3728",
"m  c #553B25",
"M  c #5C3A23",
"N  c #533C2A",
"B  c #593A25",
"V  c #443D35",
"C  c #433D39",
"Z  c #463B35",
"A  c #663E22",
"S  c #693E23",
"D  c #623A26",
"F  c #3E413C",
"G  c #5A461D",
"H  c #7B5F1E",
"J  c #5D4225",
"K  c #5B422D",
"L  c #56402B",
"P  c #46413A",
"I  c #5E4530",
"U  c #50423B",
"Y  c #634027",
"T  c #6A4426",
"R  c #634229",
"E  c #6E4629",
"W  c #6C492C",
"Q  c #684A24",
"!  c #734827",
"~  c #72492A",
"^  c #764C2C",
"/  c #624632",
"(  c #644933",
")  c #6D4B32",
"_  c #714F33",
"`  c #745135",
"'  c #7B5334",
"]  c #7C5938",
"[  c #71582E",
"{  c #2A3542",
"}  c #2D3946",
"|  c #2E3B49",
" . c #273341",
".. c #343C43",
"X. c #313D4B",
"o. c #393E46",
"O. c #303F50",
"+. c #33414E",
"@. c #3B434C",
"#. c #3A4146",
"$. c #354352",
"%. c #394654",
"&. c #3A4956",
"*. c #394758",
"=. c #3C4C5B",
"-. c #3E515E",
";. c #3F4E61",
":. c #3E5162",
">. c #464243",
",. c #4A4646",
"<. c #4C4945",
"1. c #4D4848",
"2. c #44474C",
"3. c #464E56",
"4. c #424E5C",
"5. c #484E57",
"6. c #47515A",
"7. c #595B5E",
"8. c #5E5A43",
"9. c #435464",
"0. c #445669",
"q. c #465A6C",
"w. c #495C6E",
"e. c #475866",
"r. c #555C67",
"t. c #475D71",
"y. c #495D71",
"u. c #4A5E72",
"i. c #48576A",
"p. c #4D6174",
"a. c #4F657A",
"s. c #51667A",
"d. c #54697E",
"f. c #536578",
"g. c #65666B",
"h. c #66696D",
"j. c #686A6D",
"k. c #626364",
"l. c #6A6D70",
"z. c #6E7074",
"x. c #717477",
"c. c #73767A",
"v. c #855935",
"b. c #845B3B",
"n. c #895C3A",
"m. c #885B35",
"M. c #82522E",
"N. c #997524",
"B. c #8E623E",
"V. c #8A6635",
"C. c #91643D",
"Z. c #956A3E",
"A. c #916A35",
"S. c #8E6E2F",
"D. c #885F41",
"F. c #8B6342",
"G. c #8E6844",
"H. c #936540",
"J. c #966943",
"K. c #9B6D45",
"L. c #986C49",
"P. c #9E7147",
"I. c #9F7249",
"U. c #A16E47",
"Y. c #A27246",
"T. c #A37249",
"R. c #AA764B",
"E. c #AC794D",
"W. c #B17B4D",
"Q. c #AE7B51",
"!. c #B47E52",
"~. c #B97F52",
"^. c #9F8137",
"/. c #A78321",
"(. c #C79C19",
"). c #DEAD1B",
"_. c #D4AD38",
"`. c #FAC629",
"'. c #B58050",
"]. c #BA8155",
"[. c #B68058",
"{. c #B6804F",
"}. c #DEC47A",
"|. c #FBD764",
" X c #556C82",
".X c #596F84",
"XX c #5D768E",
"oX c #5C758C",
"OX c #5E788F",
"+X c #5A7286",
"@X c #5E7691",
"#X c #5E7991",
"$X c #60798F",
"%X c #7B7D82",
"&X c #607793",
"*X c #617991",
"=X c #7B8083",
"-X c #83868B",
";X c #86898E",
":X c #8B8D93",
">X c #868991",
",X c #8E9096",
"<X c #8F9198",
"1X c #93969C",
"2X c #93969A",
"3X c #9A9CA2",
"4X c #9799A1",
"5X c #9FA0A7",
"6X c #A3A5AC",
"7X c #ABAEB3",
"8X c #A7A9B0",
"9X c #B1B3BA",
"0X c #B5BABD",
"qX c #BABDC1",
/* pixels */
"                                                                                                                                ",
"                                                                                                                                ",
"                                                    : : > 2 : : , 2 , , : o                                                     ",
"                                            o @ e 4 9.9.9.9.9.9.0.0.s.9.%.e 2 2 O O                                             ",
"                                        O } X.O.w.%.%.y.y.y.y.y.&.5 +.2 X.i.*.i.&.X.r o                                         ",
"                                    O X.4..X&Xs.9.X.< 0.y.w.t.t.q.{ t &.w.%.r oX#XoX9.r O o                                     ",
"                                3 + 4 .X&X*X XX.y.f.r O.y.t.y.t.t.q.0.q.0.> 4.@X X$.$.p.3 # 3                                   ",
"                              2 4.&.4 p.#X@X9.} w.$X0. .0.;.*.q.t.p.:.+.*.r u.oX$.y a.oX X X| 2                                 ",
"                            r %.y.w.=.9.oXOXoXu.*.oX X4 y 2 , { $.q.$.&.r s.XX#XoX+XOX$XXXq.$.-.} #                             ",
"                           .0.y.y.w.q.e :.OX$XoX+X+XoXp.: e =.X.5 y -.+.o.$X@X@XoXq. X$Xq.2 &.q.q.r o                           ",
"                        > ;.y.y.w.w.w.X.5 p.-. .{ | s.*X&.} y.y.:.-.q.+.d.$X Xs.$.4.oXa.4 X.$.9.u.} X <                         ",
"                      < $.y.y.y.u.u.u.w.u e 4.y.y.y. X.X0.3 ;.0.0.0.e.$..X XO.u e.d.oX} { q.e.w.u.$.e X.                        ",
"                    o e w.y.y.y.y.y.p.9...q 7 9 0 0 0 0 6 % % 7 7 7 % 9 8 0 7 6 6 8 5.a -.y.=.e.w.q.q.q.,                       ",
"                  O 4 4 ;.t.y.y.y.9.5.U B T s j S ) W S s B W ~ T J s M W W W k & m / f a 4.{ 4.p.y.y.q.2 o                     ",
"                  1 ;.y.X.X.y.y.q.u n M.! ! h S n.H.C.m.k ~ V.J.B.v.k v.m.Z.C.' z ^ n.U.b.Z i =.y.y.q.$.i i 1                   ",
"                1 { 4.s.u., O.9.t n W M.^ ^ M ! T.Q.R.K.c v.T.E.T.Z.c H.T.E.E.C.c C.Y.].!.F.q 4.y.9.4 9 $.=.u                   ",
"                : u. X;. X9.2 @.% Y ! m.C.H.S ! U.Q.R.K.c v.Y.'.R.J.Y H.P.E.R.Z.c H.Y.'.!.J.f V 9.y 9 +.4.oX9.                  ",
"                } .X&Xs.d.+X9.>.s A ! J.E.U.S ! U.!.R.K.c v.Y.W.R.J.c C.P.E.R.B.c n.Y.{.!.J.k ( p r s.a. X@X0.1                 ",
"              1 =.*XXX+XoXOXe.N d A ' !.!.K.A ! U.W.R.U.c v.Y.E.Y.J.c Z.P.E.E.B.c D.U.!.!.H.k b.q 9.OXOX@X@X X{                 ",
"              r d.XX.X+.9.d.0 M f R C.].Q.K.A ! U.R.R.K.c M.Y.W.R.J.Y H.P.E.R.Z.c n.P.!.!.J.k B._ r.OXs.a. XoXy                 ",
"              { oXOXXX+X=.@.n W j ) T.[.Q.L.S ! T.W.R.K.l v.T.E.R.J.c J.P.E.E.B.c B.U.'.Q.J.k C.G.#.=.$.| t.OX$.O               ",
"              2 | +.$.+.+.8 b E j M.T.[.Q.L.S ! U.W.R.K.l m.Y.'.U.Z.c C.P.R.R.B.c H.U.'.!.J.k B.K.; O | $.$.$.} :               ",
"              O o . . . o $ R W h n.T.~.!.K.S ! Y.W.R.Z.c v.Y.E.R.J.S Z.I.E.E.C.c n.T.!.!.J.k B.K.- o o o + o o +               ",
"              $.&.# + # %.@.R E h n.T.~.Q.K.S ! Y.W.R.P.l v.T.W.U.K.c H.P.E.E.C.c B.P.{.!.J.l B.J.P u.9.=.:.:.p.%.              ",
"              o 2 %.d.d.:...D E h n.T.].Q.U.S ~ U.Q.R.K.c v.Y.W.R.J.S Z.U.E.R.C.c B.U.{.!.J.k B.J.<.9.e } | r %.|               ",
"              { w.$X&X*X Xp J E h b.I.].Q.K.S ~ U.Q.R.K.k v.Y.E.T.J.c H.P.E.E.C.c B.T.!.!.J.k B.J.,.9.q.@X@Xp.< X               ",
"              f.*X@X&X@X#X5.Y E z b.I.].Q.K.S ~ U.W.R.U.c v.Y.!.T.K.c H.P.E.R.B.c F.P.'.!.J.k B.J.<.@X&X@X@X*Xy.}               ",
"              u.#X#X#X#X#X5.J E h b.I.[.Q.L.A ! U.R.R.K.c v.Y.W.R.H.S C.P.R.E.C.c n.P.{.Q.J.k B.K.<.@X@X@X@X&X&X9.              ",
"              $.9.9.9.9.9.a J E h n.T.[.!.K.S ! U.W.R.L.c v.U.!.T.K.c H.P.E.E.B.c B.T.'.{.J.k B.J.P :.9.9.9.9.0.}               ",
"              . X X X X . $ Y ! h n.T.].!.U.S ! T.W.E.U.c v.T.!.R.K.c H.Y.E.E.Z.c F.T.'.'.J.k B.P.; . X X X . . .               ",
"              u +.$.2 < X.8 b B s ) ] G.D.] j D b.D.D.M.h S D.D.b.' j ` ] F.B.) z ) ] G.F.' s ` ] q } +.u 4 X.X.r               ",
"              =.p.4.@.%.} @.a ,.>.,.,.1.1.1.,.>.,.1.,.,.>.>.,.1.,.,.>.,.1.1.<.,.>.>.<.<.<.<.>.<.P u 9.+.2 3 4.p.+.              ",
"              =.=.2 &.q.e.&.c.>X>XqX4X:X:X>X4X9X<X:X:X:X7X7X:X,X:X:X8X5X:X:X:X:X6X5X:X:X:X;X7X6X-X@.} +.:. .y t.+.              ",
"              =.$.3 =.p.t.&.=X,X-X4X<X<X<X:X>X3X<X,X,X,X<X2X,X,X<X:X:X<X:X<X<X>X>X4X:X:X:X;X2X3X-X@.e.q.p.t.5 :.$.              ",
"              =.q.$.:.q.u.@.7.j.g.g.h.g.g.g.g.g.g.h.j.j.g.g.h.h.g.j.k.g.g.g.g.g.g.g.g.h.g.g.g.g.k.#.0.t.:.:.$.:.|               ",
"              =.p.y.t.t.p...- = % n I ) ( B g g I / K L ; n K I N N s N I I I N = N N ( ( N - b L p q.t.p.:.t.p.$.              ",
"              ..$.$.%.$.*.p R E h n.T.~.W.U.c ! I.E.R.P.l v.T.'.R.Z.c H.P.E.E.F.c D.U.~.'.J.l B.Z.w +.*.*.$.$.*.y               ",
"              r } } } } } 8 Y E h n.T.].W.Z.T ! P.E.R.J.c v.T.E.R.Z.c C.P.R.R.F.S n.U.!.'.J.k C.J.w { } | | | O.e               ",
"              w..Xu.XXXX@X4.D E h D.T.].W.Y.Y ! Y.E.R.P.l v.T.'.Y.Z.c Z.P.E.E.F.c H.T.'.Q.` g [ J.<.oXOXoXoXoX#X;.              ",
"               .} u.&X*X@X6.R E h n.T.].W.Z.Y ! Y.E.R.K.l v.T.E.Y.Z.c F.P.E.E.C.c B.Y.W.J.N.^.S.V.<.oXOXa. . .:.=.              ",
"              9.d.XX@X&X@X5.Y ! h v.U.].W.U.S S Y.E.R.P.k v.T.Q.R.Z.c Z.P.E.R.G.l B.Y.R.] ).|.}.[ #.oXOX+Xa.a.$.4               ",
"              p.*X@X@X@X@X5.Y E h n.U.~.W.U.S ! Y.E.R.P.c v.T.E.U.J.c H.P.E.R.B.l B.T.W G (.`._.G +.+XOXOX#X#XoX;.              ",
"              p.#X@X#X#X@X3.M E h D.U.~.W.K.S ! Y.E.R.P.c m.Y.Q.T.J.c H.P.R.E.B.c B.I.] H S./.N.S.8.OXOXOXOX=X#X;.              ",
"              e. X X X X X3.R E h n.U.~.W.U.c ! Y.R.R.J.l v.T.E.T.J.c H.P.E.E.V.c B.P.Z.S.Q g G S.F a.a. X Xd. X=.              ",
"              9 e e y 5 e 6 D E j n.Y.].W.U.c ! P.E.R.P.l v.T.Q.T.J.c H.Y.E.E.B.c B.T.!.A.N.N.H I q e e e e e e 2               ",
"              %.0.0.0.e.e...Y E h m.Y.].W.Z.c ! Y.E.R.K.c m.I.Q.T.Z.c H.K.E.R.B.c D.T.~.T.J g ~ G.P -.9.0.:.0.0.}               ",
"              &.p.w.w.q.p.#.R E h n.Y.].W.K.S ! P.E.R.K.l v.T.Q.T.J.c H.T.R.R.B.c H.U.!.!.J.k H.Z.P q.t.q.p.t.t.O.              ",
"              e 4.q.p.0.q.+.S T h n.Y.{.W.K.S ! Y.E.R.K.c n.T.Q.T.J.c Z.P.E.R.B.c B.U.~.!.J.k n.Z.F q.t.t.p.y.q.}               ",
"              u r +.=. .:.@.D E h b.Y.].W.K.c ! Y.E.R.P.c v.T.Q.T.J.c H.P.E.R.A.c D.U.!.!.H.k n.Z.P p.a.:.=.0.$.>               ",
"              =.q.&.u 9.t.X.Y E h b.Y.].W.K.S ! Y.E.R.K.c v.T.Q.T.J.c H.P.E.R.B.c H.T.!.!.K.k C.P.P q.p.| r | q.}               ",
"              -.w.w.w.w.p.#.Y E j n.T.].W.U.c ! Y.E.R.K.l v.T.Q.T.J.c H.K.E.R.B.c B.U.~.!.J.k C.Z.P q.t.p.p.:.a.O.              ",
"              %.9.e.9.9.:.a Y E h m.Y.].W.Z.S ! Y.E.T.P.l m.T.Q.T.Z.c H.P.E.R.B.c B.U.~.~.J.k B.K.P :.q.q.:.t.:.|               ",
"              3 e e 5 5 5 6 Y E d m.T.].W.L.S ~ Y.E.R.P.c v.T.'.T.J.Y Z.T.!.E.B.c H.U.~.'.J.k C.K.q 4 5 5 5 4 5 ,               ",
"              e.d.d. X X+X%.q g - b K ( / I = f K / K L = b K / K L * m N / I N * b N / ( N - N J 9 q. X X X X X=.              ",
"              f.OXoX#X#XOX6.7.j.j.x.j.j.j.j.z.x.h.j.j.j.x.x.j.j.h.j.z.x.h.h.h.h.x.z.l.l.j.j.x.z.h.#.w.#X X XOX#X;.              ",
"              u +.e.p.OXOXe.=X,X2X0X1X:X,X;X1X0X<X,X,X,X7XqX<X,X,X:X6X9X,X<X,X:X6X6X,X,X:X:X9X6X:X7.w.=X Xa.+XoX;.              ",
"              5.w.9. X@XXXe.%X:X;X>X:X,X,X,X-X;X:X:X:X:X-X,X:X:X:X;X-X<X:X>X:X>X=X,X:X:X:X>X-X:X:Xr.q.OX#X:.r q. .              ",
"              f.$XoX@XXX@X=.C ,.>.,.,.1.1.,.>.>.,.1.<.2.>.>.,.<.<.,.>.,.1.1.1.>.>.2.,.<.2.,.>.>.,.p q.OXOXd.=. X=.              ",
"              p.$X@X@X$X@X5.b B * W b.L.H.] j D ] F.b.] x ( b.F.b.' z ` ] F.D._ z ) ] G.G.` d ` ] V  XOXOXOXOXOX:.              ",
"              { ..X.| | X.t S E f n.Y.].W.K.S ^ R.E.R.P.c m.T.!.Y.J.c Z.U.E.E.H.l B.R.'.'.J.k H.P.w } | | } | | 5               ",
"              X.&.*.%.&.*.p S E j b.T.].!.L.T ~ I.E.R.K.c v.T.E.T.J.c Z.U.W.R.C.c B.Y.!.~.H.k F.K.Z $.*.*.*.*.$. .              ",
"              =.p.q.:.p.y.#.R W f b.T.[.Q.L.S ~ I.Q.R.L.c b.T.Q.T.J.c F.Y.E.E.H.c B.T.!.W.J.D H.L.C t.u.q.0.p.p.$.              ",
"                                                                                                                                ",
"                                                                                                                                "
};
