/* XPM */
static char *fa66d041fe9f47b3ab3eec798228d31fgvUPPtOYodhC04q4[] = {
/* columns rows colors chars-per-pixel */
"64 64 171 2 ",
"   c None",
".  c #1B1412",
"X  c #21142F",
"o  c #251733",
"O  c #2B1B3B",
"+  c #483632",
"@  c #513C38",
"#  c #2F1E41",
"$  c #311F43",
"%  c #351F4A",
"&  c #322144",
"*  c #36214B",
"=  c #39264C",
"-  c #3B284E",
";  c #3C3344",
":  c #3F3549",
">  c #3F3848",
",  c #3D2454",
"<  c #3E2C51",
"1  c #40374A",
"2  c #443B4D",
"3  c #412D56",
"4  c #412759",
"5  c #442B5B",
"6  c #482F5E",
"7  c #433355",
"8  c #463B52",
"9  c #493D56",
"0  c #46325A",
"q  c #4A355E",
"w  c #473858",
"e  c #4B3D5B",
"r  c #4C3662",
"t  c #4E3962",
"y  c #513C66",
"u  c #543E69",
"i  c #47404E",
"p  c #48414F",
"a  c #5C4744",
"s  c #4A4352",
"d  c #4F4956",
"f  c #4E415D",
"g  c #504A57",
"h  c #51445E",
"j  c #534B5B",
"k  c #56515D",
"l  c #684E49",
"z  c #634E5F",
"x  c #765C55",
"c  c #534363",
"v  c #5A4263",
"b  c #564A62",
"n  c #584B64",
"m  c #56416B",
"M  c #59446D",
"N  c #574868",
"B  c #5B4C6B",
"V  c #5B5365",
"C  c #5E526B",
"Z  c #5C4671",
"A  c #5E4B71",
"S  c #675064",
"D  c #61566C",
"F  c #645C6D",
"G  c #755D6A",
"H  c #785E6A",
"J  c #745568",
"K  c #614E75",
"L  c #635374",
"P  c #665379",
"I  c #69567C",
"U  c #6B587D",
"Y  c #6D5676",
"T  c #755B78",
"R  c #7B6664",
"E  c #7D6777",
"W  c #7C6679",
"Q  c #976142",
"!  c #996445",
"~  c #9F694C",
"^  c #A26D4F",
"/  c #A67055",
"(  c #A87253",
")  c #85656D",
"_  c #8C6371",
"`  c #87677C",
"'  c #8B6D7A",
"]  c #876C7A",
"[  c #956D74",
"{  c #996F78",
"}  c #8E7571",
"|  c #927071",
" . c #997472",
".. c #9F7874",
"X. c #9C747D",
"o. c #B37D60",
"O. c #A57C76",
"+. c #AA7F77",
"@. c #A87979",
"#. c #B88067",
"$. c #BF8C79",
"%. c #B28370",
"&. c #C48C74",
"*. c #C69073",
"=. c #CB927B",
"-. c #C5927F",
";. c #6E5C81",
":. c #715F84",
">. c #726185",
",. c #9C7680",
"<. c #A27981",
"1. c #9E8885",
"2. c #A88081",
"3. c #A58586",
"4. c #B48986",
"5. c #BF8A80",
"6. c #B48E8A",
"7. c #BC948C",
"8. c #A99592",
"9. c #BCA8A5",
"0. c #C49080",
"q. c #CC9683",
"w. c #CF9882",
"e. c #C49A8F",
"r. c #D39B84",
"t. c #D89F87",
"y. c #D59F8A",
"u. c #C89E92",
"i. c #DAA387",
"p. c #DBA48C",
"a. c #DFA88E",
"s. c #D5A58E",
"d. c #D4A291",
"f. c #DCAD94",
"g. c #DAA691",
"h. c #E0A98F",
"j. c #E2AB91",
"k. c #E6AF95",
"l. c #E4AD94",
"z. c #E6B096",
"x. c #E9B196",
"c. c #E2B39A",
"v. c #EAB398",
"b. c #EAB499",
"n. c #ECB599",
"m. c #EFB89B",
"M. c #EEB89C",
"N. c #F2BC9E",
"B. c #C8ADA2",
"V. c #D4ADA2",
"C. c #CEB0A6",
"Z. c #DEB4A3",
"A. c #D9B6A8",
"S. c #D8BDB6",
"D. c #F1BDA0",
"F. c #F2C0A2",
"G. c #FAC5A5",
"H. c #F8C7A8",
"J. c #F6C9AE",
"K. c #FBC8A8",
"L. c #F4C4AA",
"P. c #E1C7BD",
"I. c #E7C8BC",
"U. c #E8C8B8",
"Y. c #F4C9B1",
"T. c #E6CEC7",
"R. c #F6D9C9",
"E. c #E2D4D1",
"W. c #EEE3DF",
"Q. c #F1E8E6",
"!. c #F8EFEA",
/* pixels */
"                                                                                                                                ",
"                                                                                                                                ",
"                                                                                                                                ",
"                                                                                                                                ",
"                                                            u u v u u M M M M B                                                 ",
"                                                      b c y y y u u u u m M M M Z A B                                           ",
"                                                    v c t r r t y y u u M u K Z Z Z Z A                                         ",
"                                                  n c e e r t t y u u u K M K K K P K K K                                       ",
"                                                z h e e r r r r y u u u Z K K P P P K P K Z                                     ",
"                                                n h y t y r u y u u u K K K K P ;.P ;.P P K                                     ",
"                                              n j h e y r t y y u u K K K K P I ;.:.;.I I L A                                   ",
"                                              n b e e t t r r r u u u u K K P ;.:.:.:.;.U P K                                   ",
"                                              n h h e y r u J _ { ,.{ <.<.<.,.` Y ;.:.:.I P K                                   ",
"                                              n j h h y _ $.r.t.t.p.j.x.n.n.M.v.d.<.Y ;.I P K                                   ",
"                Z I :.                        n j e h @.w.=.&.=.r.t.j.k.x.x.t.r.t.j.4.Y P K Z                                   ",
"              Z Z I U                         v j h { &.~ Q Q ~ q.t.h.j.k.h.^ ! ! / r.+.K Z M                                   ",
"              Z M u B L                       n j S 0.o./ &.0.=.y.i.a.h.z.z.a.a.r.o.&.g.T M m                                   ",
"                r r m L                       n h ) w.r.w.y.r.w.y.p.a.a.z.b.m.D.m.m.b.x.X.m u                                   ",
"                t y M K I                     n h  .r.r.Z.T.S.V.y.i.a.z.x.F.I.P.R.Y.m.m.4.m y                                   ",
"                  u u m B                     n b O.w.Z.Q.9.R | A.p.a.c.M.U.1.a 8.!.J.m.e.m y                                   ",
"                  y t t m D                   n n +.w.I.E.l . @ C.f.p.z.L.B.+ . x W.R.F.e.m t                                   ",
"                    t t c K I                   j O.w.y.d.&.%.$.p.p.y.f.D.F.f.s.c.J.G.G.e.u                                     ",
"                      t y N L                   b  .w.w.r.r.t.t.q.| G E 3.c.G.K.G.G.G.G.7.t                                     ",
"                      e t y B L                 b H 0.r.r.t.w.+.S q c B L W e.N.G.K.G.N.' r                                     ",
"                        t t c A                 b j H ..+. .J 9 7 r u M A A D ] 6.u.e.' u r                                     ",
"                        t q e B L               b h f e e 8 0 3 5 5 r u N B M m u M u r r 6                                     ",
"                          9 9 c B L             n h f w w q 5 5 5 6 r r y u y y y r r r 5 6                                     ",
"                          w q t m L         L   b h f e q q 5 5 4 5 5 r r r r r 6 6 6 6 5 5                                     ",
"                            t q e B L   c B L   b j h e q 0 5 5 4 4 4 6 0 6 6 6 5 5 4 4 4 5                                     ",
"                              1 2 h c y m m N   c f e e w q 5 5 4 4 4 4 5 5 5 4 5 4 4 4 5 5                                     ",
"                              1 2 q t t q t       e w w q 0 5 5 4 4 4 4 4 4 4 4 4 4 4 4 4                                       ",
"                              q q q q 0 t m m     0 w 0 0 0 5 5 6 4 4 4 4 4 4 4 4 4 , , ,                                       ",
"                          q q r r , 6 y u m m       < < < < , 4 4 4 , 4 , , 4 , , , , ,                                         ",
"                        0 0 r 3 , r y y u m m c y < < - , - , = , , , , , , , , * * 5 Z ;.                                      ",
"                          0   3 r r y y u u t t r r < , = * $ % % % % % % % % % * r A A ;.;.;.                                  ",
"                                r r y y y t f t r r r < - = # o O # $ $ # O o O 5 ;.;.;.P ;.Z ;.I                               ",
"                                r y r y f f w w r y r r 5 < = o o O O O O o X % Z P P K P ;.L I L L                             ",
"                                  y r r f : f w < f u y r r 6 = O & & & $ O # y P P P ;.;.P L L L C L                           ",
"                                    f s s f < f f 0 r m u u r r - = - - = # 3 K P P K ;.P K L L L C L L                         ",
"                                    s 8 p f f t f < 5 u u u u u t 7 5 3 = = m P K K ;.;.K L L L D C L F L                       ",
"                                  d p i 8 9 e e f w < r m m u u u y 5 5 = q A P P P I P A L L L D B L F L                       ",
"                                d p i 2 i 9 e f e e w < y M m m u m r < < B P P P I I B B L C L B n F L F L                     ",
"                                s i 2 2 8 9 e e e f f < r y m m u m c < t P P P P I A B A B A C D N L D F D                     ",
"                              g s 2 > 1 8 9 9 f f f f w < r u u u u M y B K K P I P B B B B C L B b D D F L F                   ",
"                              d p > : : 8 9 e e e f f f < < y u u u u B K P K L I A B B B B C C B b D D D D F                   ",
"                            k d i > ; : > s 9 e f e t f e < r u u u u m A K P I K N M N N B B B V h D D D D F F                 ",
"                            j s > > : : 8 9 9 e f f f f h w < y u u u y B L I P B N B B B B B C V h D D D D F F                 ",
"                            k s > ; : : > 8 9 f 9 f f f f t < < y u t u y A L A B B N B B B C C n h V C C D F F                 ",
"                          k g p : ; ; : 8 9 9 9 e f f f h c w < r t t u t m P N N B B B B B C C C f V D F D D F F               ",
"                          V g 2 ; ; ; : 2 8 9 9 9 e e f f f f 7 < t u t t t N B N N M B B B C C V 9 V V V V D F F               ",
"                          k d i ; ; ; : 2 8 8 9 9 9 e f f f h t < 7 t t y t c C N N N B B B B C B s C D V F D F F               ",
"                          k d 2 ; ; ; : 8 8 8 8 9 9 f 9 f h h h w < q y t t t N C N B N B B C C V s V V V D V F F               ",
"                          k d 2 ; ; ; ; 8 2 7 8 9 9 e e f f f f f < < t t t t t B n N N N C C C V 9 V V V D V F F               ",
"                          j s > ; ; ; ; 2 2 2 8 8 9 9 9 e f f f f t < 0 q t q q t K b N B B C C V 8 V V V V V F F               ",
"                          g p 2 ; ; ; : 2 2 2 8 8 w 9 9 9 e f f c f 9 < r t t t t N C N B B C C C 8 V V V D V V F               ",
"                          k p > ; ; : : 8 : : 2 8 8 8 9 s e e f f h f 7 < q q q q t B b B B C C V 8 n V V V D F F               ",
"                          g s > ; ; ; ; 2 : : 2 8 8 8 w 9 s 9 f f h f e < r r q q e y B N B B D V p k V k F V V F               ",
"                          k p > ; ; ; ; 2 : : : : : 8 8 w 9 e 9 f f f f e < q q q r r N C n C C V s k V V V V F F               ",
"                          k p > ; ; : : 2 : : : : 8 8 8 9 9 9 f 9 f f f f w < t e e q t B n D D V p k V k V V F E               ",
"                          g p > ; ; ; : i : : : : : : 8 8 8 9 f e f f f f f < q q q q t c B B D V p k V V V V F F               ",
"                                                                                                                                ",
"                                                                                                                                ",
"                                                                                                                                ",
"                                                                                                                                "
};
