/* XPM */
static char *_fc75095cfd7493b8bf23cb2687ab654MgR2BsXbQTWzsLwq[] = {
/* columns rows colors chars-per-pixel */
"64 64 178 2 ",
"   c None",
".  c #040404",
"X  c #0B0604",
"o  c #0E0805",
"O  c #070708",
"+  c #080708",
"@  c #0B0B0C",
"#  c #120604",
"$  c #120C03",
"%  c #120D0B",
"&  c #1A0F08",
"*  c #1A1105",
"=  c #16110B",
"-  c #1B140D",
";  c #0F0E10",
":  c #110F10",
">  c #141314",
",  c #1B1614",
"<  c #171618",
"1  c #181719",
"2  c #1C1A1C",
"3  c #330A0A",
"4  c #3D0E0C",
"5  c #231C07",
"6  c #22170C",
"7  c #221A0B",
"8  c #231707",
"9  c #3A150C",
"0  c #211D1D",
"q  c #261B15",
"w  c #361111",
"e  c #3B1112",
"r  c #282106",
"t  c #25220D",
"y  c #2B2611",
"u  c #272018",
"i  c #272013",
"p  c #302D1C",
"a  c #1E1D20",
"s  c #211F21",
"d  c #242325",
"f  c #292424",
"g  c #272529",
"h  c #28272A",
"j  c #2B292C",
"k  c #332E2D",
"l  c #36302E",
"z  c #2E2C31",
"x  c #312E33",
"c  c #382F34",
"v  c #333036",
"b  c #363439",
"n  c #39363C",
"m  c #3C393E",
"M  c #3D3633",
"N  c #451C0F",
"B  c #491B11",
"V  c #4C200E",
"C  c #532E0F",
"Z  c #58390D",
"A  c #4D2D1A",
"S  c #482B16",
"D  c #502F1B",
"F  c #543417",
"G  c #53311A",
"H  c #5B351D",
"J  c #5E381C",
"K  c #5E3312",
"L  c #633F0F",
"P  c #613B1A",
"I  c #4C2424",
"U  c #552925",
"Y  c #592E23",
"T  c #562E2A",
"R  c #5C3222",
"E  c #533227",
"W  c #423B3C",
"Q  c #4C3224",
"!  c #613523",
"~  c #653A23",
"^  c #693E21",
"/  c #633C28",
"(  c #5F410B",
")  c #5E4214",
"_  c #62420C",
"`  c #6E4A0E",
"'  c #6A470F",
"]  c #704C0D",
"[  c #7E560F",
"{  c #6E4C10",
"}  c #6C411E",
"|  c #65411D",
" . c #754C14",
".. c #784F12",
"X. c #7A5212",
"o. c #7F5911",
"O. c #76631D",
"+. c #4A423F",
"@. c #6D4522",
"#. c #714922",
"$. c #704722",
"%. c #7E5821",
"&. c #7C5F34",
"*. c #3F3C41",
"=. c #413E42",
"-. c #444045",
";. c #4A4346",
":. c #464349",
">. c #4A464C",
",. c #4C494F",
"<. c #524A4D",
"1. c #514449",
"2. c #4E4A50",
"3. c #534E53",
"4. c #565259",
"5. c #5A555D",
"6. c #5E565A",
"7. c #635656",
"8. c #64595C",
"9. c #675A5B",
"0. c #5F5A61",
"q. c #625D66",
"w. c #635F69",
"e. c #6E6061",
"r. c #66616B",
"t. c #69646E",
"y. c #716261",
"u. c #7A6967",
"i. c #7C6B6A",
"p. c #6B6771",
"a. c #6E6974",
"s. c #706B76",
"d. c #80570F",
"f. c #825C13",
"g. c #805A21",
"h. c #82663B",
"j. c #897777",
"k. c #907E7E",
"l. c #A38D19",
"z. c #A98D19",
"x. c #AF941F",
"c. c #B2971E",
"v. c #B3981E",
"b. c #BCAA16",
"n. c #B6A916",
"m. c #CEC018",
"M. c #7F7A86",
"N. c #978380",
"B. c #9B8682",
"V. c #968D92",
"C. c #948E9B",
"Z. c #AA9A96",
"A. c #B49D92",
"S. c #BBA397",
"D. c #9B95A3",
"F. c #9F9AA8",
"G. c #A19BAA",
"H. c #B6A9A8",
"J. c #BFB0AF",
"K. c #A7A0B0",
"L. c #B2ACBB",
"P. c #C1A89C",
"I. c #D3AB98",
"U. c #D6B09D",
"Y. c #C7ADA1",
"T. c #C8AEA2",
"R. c #CDB2A6",
"E. c #CEB3A8",
"W. c #D6BAAD",
"Q. c #DEBEAE",
"!. c #D0B5A9",
"~. c #DBBEB0",
"^. c #DDC1B3",
"/. c #E1C4B6",
"(. c #E0C2B3",
"). c #BCB8C7",
"_. c #CAC6D5",
"`. c #CCC8D9",
/* pixels */
"                                                                                                                                ",
"                                                                                                                                ",
"                                                      + + + O @ @ @                                                             ",
"                                                + @ @ z x x z x x j @ .                                                         ",
"                                            @ @ z v b n x x x x x n x @ O .                                                     ",
"                                          + g j n n n n n b x z g h x z j @ O                                                   ",
"                                            O @ g b n n b h > > % : > < z v j @                                                 ",
"                                              . @ z n n h 2 ;.<.3.<.<.;.2 x x O                                                 ",
"                                              @ d b n j > ;.3.7.8.8.8.8.W 0 h %                                                 ",
"                                            O d x n n d , ;.j 7.e.u.w.7.k W > g +                                               ",
"                                            O h n n z 2 ;.9.q.0 f 9.k 0 7.w.0 g @                                               ",
"                                            O h n x < >.8.j.H.d 7.j.Z.f u.j.9.>                                                 ",
"                                            + h n v : 3.u.j.T.m i.k.H.;.A.N.y.>                                                 ",
"                                            O h n v > 3.j.N.W.E.R.B.A.P.^.E.i.%                                                 ",
"                                            O d n v > 1.j.R./././.!.R.S.^.W.j.%                                                 ",
"                                              @ v n h , i.W.(.(.~.A.A.W./.R.9.%                                                 ",
"                                              O v m z > 6.R.U.Q.^.W.Q./.R.u.0                                                   ",
"                                            . @ z m v j f Y.(.I.I.I.^.R.u.2                                                     ",
"                                        . O @ g < j x j 0 A.(./.(.Q.P.u.0 +                                                     ",
"                                      . O j j b z ; > v h l A.P.P.A.k < g g O                                           .       ",
"                                      . @ j x j g d j b b x d 0 0 u z d j > X @                                       < .       ",
"        .                             > b < : % o @ j h j z j j h d d @ - D R W <                                   2 M.<       ",
"        . <                         O *.3.>.:.;.Q & % % % % = @ % % @ 5 H ^ / 3.4.2                                 z C.2       ",
"        < M.2                       > 2.p.t.5.2.<.D H H H J R R R H | l.#.! T 3.p.5.2                             z F.K.2       ",
"        2 C.z                     > :.t.p.a.t.3.=.q R } X. .^ c.%.^ Y #.~ T 1.4.p.a.0.2                         1 D._.D.2       ",
"        2 G.G.z                 @ =.t.t.0.p.t.>., G } X. .R ! %.c.#.U U U I :.3.t.a.p.5.2                       x ).L.j         ",
"        2 D.`.D.2               > 2.r.5.t.t.4.*.- P X. .! $.~ Y @.@.R Y D % ; *.4.r.0.t.5.2                   z G.`.D.2         ",
"          z L.).z             @ =.q.4.4.r.4.=.0 H .. .R $.v.%.Y U ! U U D o . > =.4.w.5.t.4.2 ;             u V._.F.z           ",
"          1 D.`.G.z           > ,.4.4.q.4.*., G  . .@.~ ~ %.c.@.U U U H , g +   > -.r.4.4.4.0.5.2 @ ; @ . % ) h.V.z             ",
"            z F._.V.u     @ < :.t.p.r.4.=.> o G R ^ x.%.Y U $.! U Y  .J % j +     < :.r.r.4.5.p.w.q.0.=.@ j W M 2               ",
"              z V.&.Z = @ m 0.p.a.t.2.*.2 g % H ~ ~ %.c.@.U U Y Y  ...G > j :       > =.2.r.p.a.s.a.t.-.> g n x O               ",
"                < = - z z 2 :.t.t.:.< > z v 7 l.%.Y ~ $.^ R Y  ...X.P - x n x +       O > -.2.0.p.t.2.< d j b d O               ",
"                O j b n n z 2 -.-.2 z v j c w K z.^ U U Y Y H X.[ ..D % x *.c O           @ @ < =.>.m @ 2 d d o                 ",
"                O h b n n n j % @ z m b h c e 4 B B B H  . . ...P J & @ s n x +                 @ @ @ . O O +                   ",
"                . s d g g d >   O v m v h c w 3 3 3 N L ' J J J P D : j j b v +                                                 ",
"                  O O O O o A   O v m h h v # . # # # * r 5 5 & & % x b j b z +                                                 ",
"                                O v b h b v O . e B B P b.m.n.F 9 + z b z x ;                                                   ",
"                                @ v j g b v O O % $ N K b.m.n.y : @ @ z b x +                                                   ",
"                              O z b g h n z @ *.*.: % & t i p 5.w.5.< ; v z +                                                   ",
"                              O v b h b v @ > >.2.>.>.>.2.0.0.a.s.a.4.> z ;                                                     ",
"                              @ x j h b x ; *.2.4.t.t.p.p.p.5.t.a.s.w.a g O                                                     ",
"                              @ z h h n v : :.5.t.t.0.p.a.p.4.4.t.s.p.5.; .                                                     ",
"                              @ x h h b z ; >.t.p.5.t.p.5.t.t.3.4.p.s.w.@ .                                                     ",
"                            @ j b h b n z < ,.p.p.4.p.p.,.4.r.4.3.t.s.w.< .                                                     ",
"                            O x j j b v < *.4.p.t.4.a.w.2 m 4.q.4.4.t.a.5.@                                                     ",
"                            ; z j b m j < >.t.t.4.4.t.5.> > =.4.w.4.4.p.w.1 @                                                   ",
"                          @ z b j b v < =.4.t.5.4.t.r.2 j d 2 *.4.w.t.5.p.w.4.;                                                 ",
"                          O v m n b z < >.r.a.p.p.a.5.< z j j 2 =.4.r.5.t.s.w.;                                                 ",
"                          O x n n b > *.2.4.t.a.a.w.a z j b m z 2 =.3.r.0.a.r.2                                                 ",
"                          @ v n b j ; *.:.2.4.p.p.5.< z h n m n z < :.4.r.p.0.,.;                                               ",
"                          + z z ; + o % , =.:.:.*.< g d h b n n z ; *.:.>.-.0 - $ $                                             ",
"                            + +   X A J G 7 - - % . O @ 2 d v z ;   @ = = - F ` { ( $                                           ",
"                                  o J X.[ ` ` ` F +     O . + +   . $ A J ` X.[ o.` $                                           ",
"                                  X G ` [ [ [ [ ` $               o S ^ X.[ { ` ` _ $                                           ",
"                                  . + 8 _ ` ` ` _ $                 = G ` _ * * * o                                             ",
"                                    X S 8 * * $ o                     # o $ * F F o                                             ",
"                                    - J J J G +                         + A P X.` -                                             ",
"                                m y O.o.X.X._ -                         o J X.[ o.O.r                                           ",
"                          0.6.=.i O.f.[ [ ] 5 *.0.0.6.0.q.6.0.0.q.0.  ,.= G X.X.[ f.O.5                                         ",
"                  q.0.0.q.  ,.> S { ` ` ` ( $ ,.  0.q.0.0.0.0.0.6.0.q.6.=.- F ` ` ` { Z $                                       ",
"                        6.q.,.@ % = * = * = @ 2.  0.q.6.0.0.0.0.0.0.0.    O X $ $ $ $ $ .                                       ",
"                                :.:.:.:.:.:.,.0.0.0.0.0.6.q.q.                                                                  ",
"                                                                                                                                ",
"                                                                                                                                "
};
